<svg viewBox="0 0 100 100" fill="none" xmlns="http://www.w3.org/2000/svg" class="s__OxlDklVl9RhJLHfWxNLs"><rect width="100" height="100" rx="16" fill="#fff"></rect><path d="M0 16C0 7.163 7.163 0 16 0h68c8.837 0 16 7.163 16 16v16H0V16z" fill="url(#RusCalendarMon_svg__a)"></path><path d="M24.285 22C21.022 22 19 19.706 19 16.004v-.016C19 12.286 21.014 10 24.285 10c2.67 0 4.668 1.725 4.887 4.137v.095h-2.295v-.055c-.242-1.282-1.25-2.152-2.592-2.152-1.772 0-2.873 1.51-2.873 3.963v.016c0 2.452 1.1 3.97 2.88 3.97 1.351 0 2.327-.798 2.577-2.016l.015-.063h2.296l-.008.087C28.93 20.37 27.002 22 24.285 22zm7.125-.293V10.293h7.486v1.97h-5.129v2.317h2.186c2.35 0 3.981 1.408 3.981 3.52v.016c-.008 2.16-1.6 3.591-3.903 3.591H31.41zm2.357-1.906h1.679c1.303 0 2.076-.585 2.076-1.685V18.1c0-1.1-.765-1.7-2.084-1.7h-1.67v3.4zm11.565-1.661v-2.08h8.891v2.08h-8.891zm14.843 3.567V10.293h4.926c2.186 0 3.49 1.083 3.49 2.84v.015c0 1.203-.883 2.255-2.038 2.429v.142c1.49.119 2.576 1.25 2.576 2.713v.016c0 2.002-1.491 3.26-3.895 3.26h-5.059zm4.325-9.642h-1.968v2.974h1.773c1.272 0 1.967-.538 1.967-1.48v-.015c0-.926-.648-1.48-1.772-1.48zm.078 4.548h-2.046v3.314h2.1c1.359 0 2.093-.585 2.093-1.669v-.015c0-1.06-.758-1.63-2.147-1.63zM76.105 22c-3.263 0-5.285-2.294-5.285-5.996v-.016c0-3.702 2.015-5.988 5.285-5.988 2.67 0 4.669 1.725 4.887 4.137v.095h-2.295v-.055c-.242-1.282-1.249-2.152-2.592-2.152-1.772 0-2.872 1.51-2.872 3.963v.016c0 2.452 1.1 3.97 2.88 3.97 1.35 0 2.326-.798 2.576-2.016l.016-.063H81l-.008.087C80.75 20.37 78.822 22 76.105 22z" fill="#fff"></path><rect x="45" y="42" width="10" height="10" rx="2" fill="#43536A" fill-opacity="0.15"></rect><rect x="58" y="42" width="10" height="10" rx="2" fill="#43536A" fill-opacity="0.15"></rect><rect x="71" y="42" width="10" height="10" rx="2" fill="#F64759"></rect><rect x="84" y="42" width="10" height="10" rx="2" fill="#F64759"></rect><rect x="32" y="54" width="10" height="10" rx="2" fill="#43536A" fill-opacity="0.15"></rect><rect x="19" y="54" width="10" height="10" rx="2" fill="#43536A" fill-opacity="0.15"></rect><rect x="6" y="54" width="10" height="10" rx="2" fill="#43536A" fill-opacity="0.15"></rect><rect x="45" y="54" width="10" height="10" rx="2" fill="#43536A" fill-opacity="0.15"></rect><rect x="58" y="54" width="10" height="10" rx="2" fill="#43536A" fill-opacity="0.15"></rect><rect x="71" y="54" width="10" height="10" rx="2" fill="#F64759"></rect><rect x="84" y="54" width="10" height="10" rx="2" fill="#F64759"></rect><rect x="32" y="66" width="10" height="10" rx="2" fill="#43536A" fill-opacity="0.15"></rect><rect x="19" y="66" width="10" height="10" rx="2" fill="#43536A" fill-opacity="0.15"></rect><rect x="6" y="66" width="10" height="10" rx="2" fill="#43536A" fill-opacity="0.15"></rect><rect x="45" y="66" width="10" height="10" rx="2" fill="#43536A" fill-opacity="0.15"></rect><rect x="58" y="66" width="10" height="10" rx="2" fill="#43536A" fill-opacity="0.15"></rect><rect x="71" y="66" width="10" height="10" rx="2" fill="#F64759"></rect><rect x="84" y="66" width="10" height="10" rx="2" fill="#F64759"></rect><rect x="32" y="78" width="10" height="10" rx="2" fill="#43536A" fill-opacity="0.15"></rect><rect x="19" y="78" width="10" height="10" rx="2" fill="#43536A" fill-opacity="0.15"></rect><rect x="6" y="78" width="10" height="10" rx="2" fill="#43536A" fill-opacity="0.15"></rect><defs><linearGradient id="RusCalendarMon_svg__a" x1="0" y1="16" x2="100" y2="16" gradientUnits="userSpaceOnUse"><stop stop-color="#F54759"></stop><stop offset="0.62" stop-color="#E23344"></stop></linearGradient></defs></svg>