<svg width="140.000000" height="30.000000" viewBox="0 0 140 30" fill="none" xmlns="http://www.w3.org/2000/svg" xmlns:xlink="http://www.w3.org/1999/xlink">
	<desc>
			Created with Pixso.
	</desc>
	<defs>
		<clipPath id="clip1_417">
			<rect width="24.000000" height="24.000000" transform="translate(0.000000 3.000000)" fill="white" fill-opacity="0"/>
		</clipPath>
	</defs>
	<path d="M53.5557 6.69043C53.5557 7.74634 52.628 8.60693 51.5049 8.60693C50.3819 8.60693 49.4602 7.74634 49.4602 6.69043C49.4602 5.64062 50.3819 4.78003 51.5049 4.78003C52.628 4.78003 53.5557 5.64062 53.5557 6.69043ZM35.426 24L31.5808 24L31.5808 5.81763L35.426 5.81763L35.426 13.8376L35.6641 13.8376L42.207 5.81763L46.8152 5.81763L40.0647 13.9597L46.8945 24L42.2986 24L37.3181 16.5232L35.426 18.8303L35.426 24ZM62.767 13.3311C61.2411 13.3311 60.1913 14.3564 60.1852 16.1143L60.1852 24L56.401 24L56.401 10.3647L60.0082 10.3647L60.0082 12.7695L60.1669 12.7695C60.7773 11.1826 62.2421 10.1877 64.2685 10.1877C67.1066 10.1877 68.9743 12.1409 68.9743 15.3147L68.9743 24L65.1901 24L65.1901 15.9922C65.2023 14.3259 64.2868 13.3311 62.767 13.3311ZM84.8185 17.2373C84.8185 21.4365 82.2489 24.2686 78.1107 24.2686C73.9725 24.2686 71.3968 21.4365 71.3968 17.2373C71.3968 13.0076 73.9725 10.1877 78.1107 10.1877C82.2489 10.1877 84.8185 13.0076 84.8185 17.2373ZM53.3848 24L49.6006 24L49.6006 10.3647L53.3848 10.3647L53.3848 24ZM75.242 17.2068C75.242 19.5872 76.2186 21.3389 78.129 21.3389C80.0028 21.3389 80.9793 19.5872 80.9793 17.2068C80.9793 14.8264 80.0028 13.0686 78.129 13.0686C76.2186 13.0686 75.242 14.8264 75.242 17.2068Z" fill="#3657CB" fill-opacity="1.000000" fill-rule="evenodd"/>
	<path d="M105.578 24L101.793 24L101.793 10.3647L105.462 10.3647L105.462 12.7451L105.602 12.7451C106.103 11.0544 107.354 10.1694 108.88 10.1694C109.264 10.1694 109.734 10.2244 110.07 10.3037L110.07 13.6545C109.716 13.5447 108.996 13.4531 108.471 13.4531C106.804 13.4531 105.578 14.6067 105.578 16.2852L105.578 24ZM95.1606 22.1079C94.4953 23.3774 93.1953 24.2563 91.175 24.2563C88.5749 24.2563 86.6523 22.8892 86.6523 20.1914C86.6523 17.1458 89.0754 16.2424 91.7731 15.9922C94.1413 15.7603 95.0751 15.6443 95.0751 14.7654L95.0751 14.7166C95.0751 13.5935 94.3366 12.9465 93.0488 12.9465C91.6938 12.9465 90.882 13.6118 90.6257 14.5212L87.1284 14.2344C87.6533 11.7502 89.8017 10.1877 93.0671 10.1877C96.1066 10.1877 98.8593 11.5549 98.8593 14.802L98.8593 24L95.2704 24L95.2704 22.1079L95.1606 22.1079ZM123.769 20.0938C123.238 22.6267 120.961 24.2686 117.586 24.2686C113.387 24.2686 110.823 21.5647 110.823 17.2434C110.823 13.0381 113.423 10.1877 117.44 10.1877C121.041 10.1877 123.848 12.4766 123.848 17.1091L123.848 18.1467L114.559 18.1467L114.559 18.1589C114.559 20.1914 115.761 21.4426 117.653 21.4426C118.91 21.4426 119.887 20.8994 120.272 19.8618L123.769 20.0938ZM134.188 22.1079C133.522 23.3774 132.222 24.2563 130.202 24.2563C127.602 24.2563 125.679 22.8892 125.679 20.1914C125.679 17.1458 128.102 16.2424 130.8 15.9922C133.168 15.7603 134.102 15.6443 134.102 14.7654L134.102 14.7166C134.102 13.5935 133.364 12.9465 132.076 12.9465C130.721 12.9465 129.909 13.6118 129.653 14.5212L126.155 14.2344C126.68 11.7502 128.829 10.1877 132.094 10.1877C135.134 10.1877 137.886 11.5549 137.886 14.802L137.886 24L134.297 24L134.297 22.1079L134.188 22.1079ZM117.501 13.0076C115.822 13.0076 114.644 14.2527 114.559 15.803L120.29 15.803C120.278 14.1794 119.142 13.0076 117.501 13.0076ZM90.2656 20.0693C90.2656 21.1069 91.0956 21.6501 92.2614 21.6501C93.9216 21.6501 95.0995 20.5576 95.0995 19.1233L95.0995 17.6768C94.6479 17.9819 93.299 18.1772 92.475 18.2932C91.1445 18.4763 90.2656 19.0012 90.2656 20.0693ZM129.293 20.0693C129.293 21.1069 130.123 21.6501 131.288 21.6501C132.949 21.6501 134.127 20.5576 134.127 19.1233L134.127 17.6768C133.675 17.9819 132.326 18.1772 131.502 18.2932C130.171 18.4763 129.293 19.0012 129.293 20.0693Z" fill="#FFFFFF" fill-opacity="1.000000" fill-rule="evenodd"/>
	<rect width="24.000000" height="24.000000" transform="translate(0.000000 3.000000)" fill="#3657CB" fill-opacity="0"/>
	<g clipPath="url(#clip1_417)">
		<path d="M13.2656 9.49146C13.2656 8.0957 12.1301 6.96021 10.7344 6.96021C9.33862 6.96021 8.20312 8.0957 8.20312 9.49146C8.20312 10.8872 9.33862 12.0227 10.7344 12.0227C12.1301 12.0227 13.2656 10.8872 13.2656 9.49146ZM9.14062 9.49146C9.14062 8.61255 9.85559 7.89771 10.7344 7.89771C11.6132 7.89771 12.3281 8.61255 12.3281 9.49146C12.3281 10.3704 11.6132 11.0852 10.7344 11.0852C9.85559 11.0852 9.14062 10.3704 9.14062 9.49146Z" fill="#FFFFFF" fill-opacity="1.000000" fill-rule="nonzero"/>
		<path d="M6.64447 15.5527C7.24677 15.2458 7.69348 14.7227 7.9024 14.0798C8.11127 13.437 8.05731 12.7512 7.75043 12.1489C7.44354 11.5466 6.92047 11.0999 6.27759 10.8911C5.63464 10.6821 4.94891 10.7361 4.34668 11.043C3.74438 11.3499 3.29767 11.873 3.08875 12.5159C2.87988 13.1587 2.93384 13.8445 3.24072 14.4468C3.54761 15.0491 4.07068 15.4956 4.7135 15.7046C4.97095 15.7883 5.23523 15.8298 5.49823 15.8298C5.89209 15.8298 6.28326 15.7368 6.64447 15.5527ZM5.00323 14.813C4.59851 14.6816 4.26923 14.4004 4.07599 14.0212C3.88275 13.6418 3.84875 13.2102 3.98029 12.8054C4.11182 12.4009 4.39307 12.0715 4.77222 11.8782C4.99963 11.7625 5.24585 11.7039 5.49384 11.7039C5.65942 11.7039 5.82581 11.73 5.98785 11.7827C6.39258 11.9141 6.72186 12.1953 6.9151 12.5745C7.10834 12.9536 7.14233 13.3855 7.0108 13.79C6.87927 14.1948 6.59802 14.5242 6.21887 14.7173C5.83966 14.9106 5.40796 14.9446 5.00323 14.813Z" fill="#FFFFFF" fill-opacity="1.000000" fill-rule="nonzero"/>
		<path d="M6.00879 21.5042C6.45715 21.8298 6.97742 21.9866 7.49323 21.9866C8.27661 21.9866 9.04962 21.625 9.54425 20.9443C9.94165 20.3972 10.1023 19.7283 9.99646 19.0605C9.89069 18.3928 9.53125 17.8062 8.98425 17.4087C8.43726 17.0115 7.76843 16.8508 7.10052 16.9565C6.43274 17.0623 5.84613 17.4219 5.44879 17.9688C4.62854 19.0979 4.87976 20.6838 6.00879 21.5042ZM6.20734 18.5198C6.45752 18.1753 6.82684 17.9492 7.24725 17.8826C7.33167 17.8691 7.41608 17.8625 7.49994 17.8625C7.83368 17.8625 8.15808 17.9673 8.43329 18.1672C9.14417 18.6838 9.30237 19.6824 8.78583 20.3933C8.26929 21.104 7.27081 21.2622 6.55988 20.7458C5.849 20.2292 5.6908 19.2307 6.20734 18.5198Z" fill="#FFFFFF" fill-opacity="1.000000" fill-rule="nonzero"/>
		<path d="M13.9755 21.9866C14.4913 21.9866 15.0117 21.8298 15.46 21.5042C16.589 20.6838 16.8402 19.0979 16.0199 17.9688C15.6225 17.4219 15.0359 17.0623 14.3682 16.9565C13.7004 16.8508 13.0314 17.0115 12.4844 17.4087C11.9374 17.8062 11.578 18.3928 11.4722 19.0605C11.3665 19.7283 11.5271 20.3972 11.9244 20.9441C12.4191 21.625 13.192 21.9866 13.9755 21.9866ZM13.0355 18.1672C13.3798 17.917 13.8008 17.8157 14.2214 17.8826C14.6418 17.949 15.0112 18.1753 15.2614 18.5198C15.7779 19.2307 15.6198 20.2292 14.9088 20.7456C14.1979 21.2622 13.1993 21.104 12.6829 20.3931C12.1664 19.6824 12.3246 18.6836 13.0355 18.1672Z" fill="#FFFFFF" fill-opacity="1.000000" fill-rule="nonzero"/>
		<path d="M15.1912 10.8909C14.5483 11.0999 14.0252 11.5466 13.7184 12.1489C13.4115 12.7512 13.3575 13.437 13.5664 14.0798C13.7753 14.7227 14.222 15.2458 14.8243 15.5527C15.1855 15.7366 15.5767 15.8298 15.9706 15.8298C16.2336 15.8298 16.4979 15.7883 16.7552 15.7046C17.3982 15.4956 17.9213 15.0491 18.2281 14.4468C18.535 13.8445 18.5889 13.1587 18.3801 12.5159C18.1711 11.8728 17.7244 11.3499 17.1221 11.043C16.5198 10.7361 15.8341 10.6821 15.1912 10.8909ZM16.6965 11.8782C17.0757 12.0715 17.3569 12.4006 17.4885 12.8054C17.62 13.2102 17.586 13.6418 17.3928 14.021C17.1995 14.4004 16.8703 14.6816 16.4655 14.813C16.0608 14.9446 15.6291 14.9106 15.2499 14.7173C14.8707 14.5242 14.5895 14.1948 14.458 13.79C14.3265 13.3855 14.3605 12.9536 14.5537 12.5745C14.7469 12.1953 15.0762 11.9141 15.481 11.7827C15.643 11.73 15.8093 11.7039 15.9749 11.7039C16.2229 11.7039 16.4692 11.7625 16.6965 11.8782Z" fill="#FFFFFF" fill-opacity="1.000000" fill-rule="nonzero"/>
		<path d="M12.3419 15C12.3419 14.1138 11.6207 13.3926 10.7344 13.3926C9.84802 13.3926 9.12695 14.1138 9.12695 15C9.12695 15.8865 9.84802 16.6074 10.7344 16.6074C11.6207 16.6074 12.3419 15.8865 12.3419 15ZM10.0645 15C10.0645 14.6306 10.365 14.3301 10.7344 14.3301C11.1038 14.3301 11.4044 14.6306 11.4044 15C11.4044 15.3694 11.1038 15.6699 10.7344 15.6699C10.365 15.6699 10.0645 15.3694 10.0645 15Z" fill="#FFFFFF" fill-opacity="1.000000" fill-rule="nonzero"/>
		<path d="M23.8627 23.7073C23.3326 23.1772 22.6279 22.8853 21.8783 22.8853C21.1287 22.8853 20.424 23.1772 19.8939 23.7073C19.1913 24.4099 18.2571 24.7969 17.2634 24.7969L15.1344 24.7969C16.3078 24.2693 17.3877 23.5273 18.3247 22.5903C20.3522 20.563 21.4688 17.8672 21.4688 15C21.4688 12.9028 20.8638 10.8711 19.7192 9.12427C19.5774 8.90771 19.2867 8.84717 19.0703 8.98901C18.8537 9.13086 18.7932 9.42163 18.9351 9.63818C19.9793 11.2317 20.5312 13.0859 20.5312 15C20.5312 20.4021 16.1364 24.7969 10.7344 24.7969C5.33234 24.7969 0.9375 20.4021 0.9375 15C0.9375 9.5979 5.33234 5.20312 10.7344 5.20312C12.6517 5.20312 14.5085 5.75684 16.104 6.80444C16.3204 6.94653 16.611 6.88623 16.7531 6.66968C16.8952 6.45337 16.835 6.16284 16.6185 6.02075C14.8698 4.87256 12.8351 4.26562 10.7344 4.26562C7.86713 4.26562 5.17151 5.38208 3.14404 7.40967C1.11664 9.43726 0 12.1328 0 15C0 17.8672 1.11658 20.563 3.14404 22.5903C5.17151 24.6179 7.86713 25.7344 10.7344 25.7344L17.2634 25.7344C18.5075 25.7344 19.6771 25.25 20.5568 24.3701C20.9098 24.0171 21.3792 23.8228 21.8783 23.8228C22.3774 23.8228 22.8468 24.0171 23.1998 24.3701C23.3828 24.5532 23.6796 24.5532 23.8627 24.3701C24.0458 24.187 24.0458 23.8904 23.8627 23.7073Z" fill="#FFFFFF" fill-opacity="1.000000" fill-rule="nonzero"/>
		<path d="M17.9967 8.21289C18.12 8.21289 18.2409 8.16333 18.3281 8.07593C18.4153 7.98828 18.4655 7.86792 18.4655 7.74463C18.4655 7.62085 18.4153 7.50049 18.3281 7.41284C18.2409 7.32568 18.12 7.27588 17.9967 7.27588C17.8734 7.27588 17.7525 7.32568 17.6653 7.41284C17.5781 7.50049 17.528 7.62085 17.528 7.74463C17.528 7.86792 17.5781 7.98877 17.6653 8.07593C17.7525 8.16333 17.8734 8.21289 17.9967 8.21289Z" fill="#FFFFFF" fill-opacity="1.000000" fill-rule="nonzero"/>
	</g>
</svg>
